<?xml version="1.0" encoding="UTF-8" standalone="no"?>
<!DOCTYPE svg PUBLIC "-//W3C//DTD SVG 1.1//EN" "http://www.w3.org/Graphics/SVG/1.1/DTD/svg11.dtd">
<svg width="100%" height="100%" viewBox="0 0 1613 1560" version="1.1" xmlns="http://www.w3.org/2000/svg" xmlns:xlink="http://www.w3.org/1999/xlink" xml:space="preserve" xmlns:serif="http://www.serif.com/" style="fill-rule:evenodd;clip-rule:evenodd;stroke-linejoin:round;stroke-miterlimit:2;">
    <g transform="matrix(4.16667,0,0,4.16667,-1276.83,-887.154)">
        <path d="M465.009,410.9L452.587,410.9C453.075,424.03 454.465,436.542 456.605,448.088L469.237,448.088C467.043,436.997 465.53,424.539 465.009,410.9Z" style="fill:white;fill-rule:nonzero;"/>
        <path d="M539.328,410.9C538.807,424.539 537.294,436.997 535.1,448.088L547.73,448.088C549.872,436.542 551.262,424.03 551.75,410.9L539.328,410.9Z" style="fill:white;fill-rule:nonzero;"/>
        <path d="M675.82,350.844C670.922,350.844 666.95,346.873 666.95,341.974C666.95,337.075 670.922,333.104 675.82,333.104C680.719,333.104 684.69,337.075 684.69,341.974C684.69,346.873 680.719,350.844 675.82,350.844ZM675.82,324.234C668.295,324.234 661.869,328.922 659.291,335.534L548.134,335.534C549.248,339.685 550.253,343.986 551.144,348.414L659.291,348.414C661.869,355.027 668.295,359.714 675.82,359.714C685.617,359.714 693.56,351.771 693.56,341.974C693.56,332.177 685.617,324.234 675.82,324.234Z" style="fill:white;fill-rule:nonzero;"/>
        <path d="M660.052,467.538C655.153,467.538 651.182,463.566 651.182,458.668C651.182,453.769 655.153,449.798 660.052,449.798C664.95,449.798 668.921,453.769 668.921,458.668C668.921,463.566 664.95,467.538 660.052,467.538ZM660.052,440.928C652.526,440.928 646.102,445.615 643.522,452.228L621.517,452.228C619.6,456.633 617.435,460.932 615.027,465.108L643.522,465.108C646.101,471.72 652.526,476.407 660.052,476.407C669.849,476.407 677.791,468.465 677.791,458.668C677.791,448.871 669.849,440.928 660.052,440.928Z" style="fill:white;fill-rule:nonzero;"/>
        <path d="M402.188,348.414L453.193,348.414C454.084,343.986 455.089,339.685 456.203,335.534L410.027,335.534C427.319,310.981 454.171,293.652 485.175,288.96C467.383,304.337 454.319,343.163 452.587,389.741L465.009,389.741C467.249,331.13 487.781,294.289 502.168,294.289C516.555,294.289 537.087,331.13 539.328,389.741L551.75,389.741C550.017,343.161 536.952,304.333 519.159,288.957C548.392,293.382 573.938,309.04 591.258,331.395L607.585,331.395C585.09,297.06 546.281,274.375 502.168,274.375C436.175,274.375 382.044,325.135 376.669,389.741L390.025,389.741C391.403,374.948 395.648,360.989 402.188,348.414Z" style="fill:white;fill-rule:nonzero;"/>
        <path d="M324.181,409.191C319.281,409.191 315.311,405.22 315.311,400.321C315.311,395.422 319.281,391.451 324.181,391.451C329.079,391.451 333.05,395.422 333.05,400.321C333.05,405.22 329.079,409.191 324.181,409.191ZM618.729,352.554L604.2,352.554C610.141,365.221 613.797,379.173 614.627,393.881L340.709,393.881C338.131,387.269 331.705,382.581 324.181,382.581C314.383,382.581 306.44,390.524 306.44,400.321C306.44,410.118 314.383,418.061 324.181,418.061C331.705,418.061 338.131,413.373 340.709,406.761L614.622,406.761C611.604,460.283 571.226,503.816 519.145,511.689C528.674,503.461 536.85,488.517 542.653,469.247L529.61,469.247C521.818,492.87 510.87,506.353 502.168,506.353C493.466,506.353 482.517,492.87 474.727,469.247L461.683,469.247C467.485,488.513 475.659,503.455 485.186,511.684C454.177,506.993 427.321,489.663 410.027,465.108L589.15,465.108C592.198,461.026 594.965,456.722 597.425,452.228L402.188,452.228C395.648,439.653 391.403,425.694 390.025,410.9L376.669,410.9C382.043,475.506 436.175,526.266 502.168,526.266C571.727,526.266 628.113,469.879 628.113,400.321C628.113,383.412 624.773,367.286 618.729,352.554Z" style="fill:white;fill-rule:nonzero;"/>
        <path d="M474.339,348.414L529.998,348.414C528.959,343.814 527.806,339.521 526.57,335.534L477.766,335.534C476.53,339.521 475.377,343.814 474.339,348.414Z" style="fill:white;fill-rule:nonzero;"/>
        <path d="M622.544,258.921L591.85,279.53C586.718,275.597 581.331,271.982 575.712,268.72L583.007,232.469C575.362,228.659 567.426,225.35 559.23,222.6L538.75,253.4C532.543,251.75 526.181,250.482 519.688,249.626L512.559,213.366C508.303,213.077 504.01,212.917 499.679,212.917C495.35,212.917 491.056,213.077 486.799,213.366L479.671,249.626C473.178,250.482 466.815,251.751 460.609,253.401L440.128,222.6C431.933,225.35 423.996,228.659 416.352,232.468L423.646,268.72C418.028,271.982 412.641,275.597 407.509,279.529L376.814,258.921C370.336,264.569 364.249,270.656 358.601,277.135L379.208,307.829C375.276,312.961 371.661,318.348 368.399,323.967L332.147,316.672C328.338,324.316 325.029,332.254 322.279,340.449L351.251,359.714L360.854,359.714C367.496,337.514 379.563,316.606 397.065,299.104C453.48,242.688 545.276,242.688 601.691,299.104C604.463,301.875 607.089,304.752 609.602,307.705L620.233,307.705L640.758,277.136C635.11,270.656 629.023,264.569 622.544,258.921Z" style="fill:white;fill-rule:nonzero;"/>
        <path d="M621.428,491.23L614.015,491.23L614.015,491.199C610.579,495.534 606.877,499.726 602.873,503.73C575.194,531.409 538.019,546.269 499.969,546.119C461.92,546.269 424.744,531.409 397.065,503.73C378.591,485.256 366.168,462.988 359.793,439.41L352.568,439.41L322.279,459.551C325.029,467.747 328.338,475.684 332.147,483.328L368.399,476.032C371.661,481.652 375.276,487.039 379.209,492.171L358.601,522.864C364.249,529.344 370.336,535.431 376.814,541.079L407.509,520.471C412.641,524.403 418.028,528.018 423.646,531.279L416.352,567.532C423.996,571.341 431.933,574.65 440.128,577.4L460.609,546.599C466.816,548.249 473.179,549.518 479.671,550.374L486.799,586.634C491.056,586.923 495.35,587.083 499.68,587.083C499.776,587.083 499.872,587.081 499.969,587.081C500.065,587.081 500.162,587.083 500.259,587.083C504.589,587.083 508.882,586.923 513.14,586.634L520.268,550.374C526.76,549.518 533.122,548.249 539.329,546.599L559.811,577.4C568.005,574.65 575.942,571.341 583.587,567.532L576.292,531.279C581.91,528.018 587.298,524.403 592.43,520.471L623.124,541.079C629.603,535.431 635.689,529.344 641.338,522.864L620.729,492.171C620.967,491.861 621.192,491.541 621.428,491.23Z" style="fill:white;fill-rule:nonzero;"/>
    </g>
</svg>
